HIERARCHY
ROOT reference
{
  OFFSET 0 0 0
  CHANNELS 6 Xposition Yposition Zposition Zrotation Xrotation Yrotation
  JOINT Hips
  {
    OFFSET 366.965 89.8555 201.872
    CHANNELS 3 Zrotation Xrotation Yrotation
    JOINT RightUpLeg
    {
      OFFSET -9.27238 -1.56811 0.0123499
      CHANNELS 3 Zrotation Xrotation Yrotation
      JOINT RightLeg
      {
        OFFSET 0.00682797 -41.8882 0.0419786
        CHANNELS 3 Zrotation Xrotation Yrotation
        JOINT RightFoot
        {
          OFFSET 0.530869 -42.1265 0.242224
          CHANNELS 3 Zrotation Xrotation Yrotation
          End Site
          {
            OFFSET 0 -7.69 17.5
          }
        }
      }
    }
    JOINT LeftUpLeg
    {
      OFFSET 9.28391 -1.61639 -0.0258413
      CHANNELS 3 Zrotation Xrotation Yrotation
      JOINT LeftLeg
      {
        OFFSET 0.0291166 -41.8727 -0.014263
        CHANNELS 3 Zrotation Xrotation Yrotation
        JOINT LeftFoot
        {
          OFFSET -0.125672 -41.4933 -0.195947
          CHANNELS 3 Zrotation Xrotation Yrotation
          End Site
          {
            OFFSET 0 -7.69 17.5
          }
        }
      }
    }
    JOINT Spine
    {
      OFFSET 0.0325614 14.2957 0.0242834
      CHANNELS 3 Zrotation Xrotation Yrotation
      JOINT Spine1
      {
        OFFSET 0.00746153 9.71731 0.0172653
        CHANNELS 3 Zrotation Xrotation Yrotation
        JOINT Spine2
        {
          OFFSET 0.0283815 10.1155 -0.00252583
          CHANNELS 3 Zrotation Xrotation Yrotation
          JOINT Spine3
          {
            OFFSET 0.0279172 9.71841 -0.00465252
            CHANNELS 3 Zrotation Xrotation Yrotation
            JOINT Neck
            {
              OFFSET 0.0182001 10.3765 0.0184284
              CHANNELS 3 Zrotation Xrotation Yrotation
              JOINT Head
              {
                OFFSET 0.0113688 9.47343 0.00632939
                CHANNELS 3 Zrotation Xrotation Yrotation
                End Site
                {
                  OFFSET 0 15.95 0
                }
              }
            }
            JOINT RightShoulder
            {
              OFFSET -3.17351 6.93492 0.00767284
              CHANNELS 3 Zrotation Xrotation Yrotation
              JOINT RightArm
              {
                OFFSET -12.7835 -0.0133269 0.0174019
                CHANNELS 3 Zrotation Xrotation Yrotation
                JOINT RightForeArm
                {
                  OFFSET -26.5112 -0.0170228 0.0247955
                  CHANNELS 3 Zrotation Xrotation Yrotation
                  JOINT RightHand
                  {
                    OFFSET -25.9918 -0.0199622 0.0218897
                    CHANNELS 3 Zrotation Xrotation Yrotation
                    JOINT RightHandThumb1
                    {
                      OFFSET -2.48905 0.190105 3.12053
                      CHANNELS 3 Zrotation Xrotation Yrotation
                      JOINT RightHandThumb2
                      {
                        OFFSET -3.68274 0 0
                        CHANNELS 3 Zrotation Xrotation Yrotation
                        JOINT RightHandThumb3
                        {
                          OFFSET -2.55832 0 0
                          CHANNELS 3 Zrotation Xrotation Yrotation
                          End Site
                          {
                            OFFSET -2.194 0 0
                          }
                        }
                      }
                    }
                    JOINT RightInHandIndex
                    {
                      OFFSET -3.22368 0.508421 1.97842
                      CHANNELS 3 Zrotation Xrotation Yrotation
                      JOINT RightHandIndex1
                      {
                        OFFSET -5.21684 -0.091368 0.999158
                        CHANNELS 3 Zrotation Xrotation Yrotation
                        JOINT RightHandIndex2
                        {
                          OFFSET -3.61937 0 0
                          CHANNELS 3 Zrotation Xrotation Yrotation
                          JOINT RightHandIndex3
                          {
                            OFFSET -2.0521 0 0
                            CHANNELS 3 Zrotation Xrotation Yrotation
                            End Site
                            {
                              OFFSET -1.805 0 0
                            }
                          }
                        }
                      }
                    }
                    JOINT RightInHandMiddle
                    {
                      OFFSET -3.38211 0.517263 0.756737
                      CHANNELS 3 Zrotation Xrotation Yrotation
                      JOINT RightHandMiddle1
                      {
                        OFFSET -5.17411 -0.084 0.313895
                        CHANNELS 3 Zrotation Xrotation Yrotation
                        JOINT RightHandMiddle2
                        {
                          OFFSET -3.94947 0 0
                          CHANNELS 3 Zrotation Xrotation Yrotation
                          JOINT RightHandMiddle3
                          {
                            OFFSET -2.47579 0 0
                            CHANNELS 3 Zrotation Xrotation Yrotation
                            End Site
                            {
                              OFFSET -1.975 0 0
                            }
                          }
                        }
                      }
                    }
                    JOINT RightInHandRing
                    {
                      OFFSET -3.36516 0.537895 -0.128947
                      CHANNELS 3 Zrotation Xrotation Yrotation
                      JOINT RightHandRing1
                      {
                        OFFSET -4.63474 -0.022105 -0.478947
                        CHANNELS 3 Zrotation Xrotation Yrotation
                        JOINT RightHandRing2
                        {
                          OFFSET -3.44238 0 0
                          CHANNELS 3 Zrotation Xrotation Yrotation
                          JOINT RightHandRing3
                          {
                            OFFSET -2.3881 0 0
                            CHANNELS 3 Zrotation Xrotation Yrotation
                            End Site
                            {
                              OFFSET -1.857 0 0
                            }
                          }
                        }
                      }
                    }
                    JOINT RightInHandPinky
                    {
                      OFFSET -3.16105 0.469368 -1.20179
                      CHANNELS 3 Zrotation Xrotation Yrotation
                      JOINT RightHandPinky1
                      {
                        OFFSET -4.14105 -0.022105 -1.09053
                        CHANNELS 3 Zrotation Xrotation Yrotation
                        JOINT RightHandPinky2
                        {
                          OFFSET -2.75653 0 0
                          CHANNELS 3 Zrotation Xrotation Yrotation
                          JOINT RightHandPinky3
                          {
                            OFFSET -1.74189 0 0
                            CHANNELS 3 Zrotation Xrotation Yrotation
                            End Site
                            {
                              OFFSET -1.645 0 0
                            }
                          }
                        }
                      }
                    }
                  }
                }
              }
            }
            JOINT LeftShoulder
            {
              OFFSET 3.23633 6.91116 -0.0162332
              CHANNELS 3 Zrotation Xrotation Yrotation
              JOINT LeftArm
              {
                OFFSET 12.8112 -0.0136289 -0.0286256
                CHANNELS 3 Zrotation Xrotation Yrotation
                JOINT LeftForeArm
                {
                  OFFSET 26.502 -0.0235899 -0.00806802
                  CHANNELS 3 Zrotation Xrotation Yrotation
                  JOINT LeftHand
                  {
                    OFFSET 25.9974 -0.0321613 -0.027004
                    CHANNELS 3 Zrotation Xrotation Yrotation
                    JOINT LeftHandThumb1
                    {
                      OFFSET 2.48905 0.190105 3.12053
                      CHANNELS 3 Zrotation Xrotation Yrotation
                      JOINT LeftHandThumb2
                      {
                        OFFSET 3.68274 0 0
                        CHANNELS 3 Zrotation Xrotation Yrotation
                        JOINT LeftHandThumb3
                        {
                          OFFSET 2.55832 0 0
                          CHANNELS 3 Zrotation Xrotation Yrotation
                          End Site
                          {
                            OFFSET 2.194 0 0
                          }
                        }
                      }
                    }
                    JOINT LeftInHandIndex
                    {
                      OFFSET 3.22368 0.508421 1.97842
                      CHANNELS 3 Zrotation Xrotation Yrotation
                      JOINT LeftHandIndex1
                      {
                        OFFSET 5.21684 -0.091368 0.999158
                        CHANNELS 3 Zrotation Xrotation Yrotation
                        JOINT LeftHandIndex2
                        {
                          OFFSET 3.61937 0 0
                          CHANNELS 3 Zrotation Xrotation Yrotation
                          JOINT LeftHandIndex3
                          {
                            OFFSET 2.0521 0 0
                            CHANNELS 3 Zrotation Xrotation Yrotation
                            End Site
                            {
                              OFFSET 1.805 0 0
                            }
                          }
                        }
                      }
                    }
                    JOINT LeftInHandMiddle
                    {
                      OFFSET 3.38211 0.517263 0.756737
                      CHANNELS 3 Zrotation Xrotation Yrotation
                      JOINT LeftHandMiddle1
                      {
                        OFFSET 5.17411 -0.084 0.313895
                        CHANNELS 3 Zrotation Xrotation Yrotation
                        JOINT LeftHandMiddle2
                        {
                          OFFSET 3.94947 0 0
                          CHANNELS 3 Zrotation Xrotation Yrotation
                          JOINT LeftHandMiddle3
                          {
                            OFFSET 2.47579 0 0
                            CHANNELS 3 Zrotation Xrotation Yrotation
                            End Site
                            {
                              OFFSET 1.975 0 0
                            }
                          }
                        }
                      }
                    }
                    JOINT LeftInHandRing
                    {
                      OFFSET 3.36516 0.537895 -0.128947
                      CHANNELS 3 Zrotation Xrotation Yrotation
                      JOINT LeftHandRing1
                      {
                        OFFSET 4.63474 -0.022105 -0.478947
                        CHANNELS 3 Zrotation Xrotation Yrotation
                        JOINT LeftHandRing2
                        {
                          OFFSET 3.44238 0 0
                          CHANNELS 3 Zrotation Xrotation Yrotation
                          JOINT LeftHandRing3
                          {
                            OFFSET 2.3881 0 0
                            CHANNELS 3 Zrotation Xrotation Yrotation
                            End Site
                            {
                              OFFSET 1.857 0 0
                            }
                          }
                        }
                      }
                    }
                    JOINT LeftInHandPinky
                    {
                      OFFSET 3.16105 0.469368 -1.20179
                      CHANNELS 3 Zrotation Xrotation Yrotation
                      JOINT LeftHandPinky1
                      {
                        OFFSET 4.14105 -0.022105 -1.09053
                        CHANNELS 3 Zrotation Xrotation Yrotation
                        JOINT LeftHandPinky2
                        {
                          OFFSET 2.75653 0 0
                          CHANNELS 3 Zrotation Xrotation Yrotation
                          JOINT LeftHandPinky3
                          {
                            OFFSET 1.74189 0 0
                            CHANNELS 3 Zrotation Xrotation Yrotation
                            End Site
                            {
                              OFFSET 1.645 0 0
                            }
                          }
                        }
                      }
                    }
                  }
                }
              }
            }
          }
        }
      }
    }
  }
}
MOTION
Frames: 2
Frame Time: 0.00833333
4.500000000000000000e+02 0.000000000000000000e+00 0.000000000000000000e+00 0.000000000000000000e+00 0.000000000000000000e+00 0.000000000000000000e+00 3.540624316901464647e-02 -1.052710412240864465e-02 9.294640522143889083e-02 -5.724208315353571108e-02 -1.118841084419722465e-01 -3.117555755527947059e-01 -2.842126049840133090e-02 5.348076778178349755e-02 2.395614734209397800e-01 -2.279986686514002270e-01 -4.966277834279031120e-03 3.741335290094516264e-02 -4.693492988364964674e-02 9.773947411487689252e-02 -2.863517242598839219e-01 -1.111440038825531468e-01 -4.476669934313656785e-02 -5.461564040494929634e-02 5.537815637415637732e-02 -1.452309114653541344e-01 2.425346141544705847e-01 3.486692757193657344e-02 8.415363531028702271e-03 1.932318536243134502e-02 8.476207919350211770e-03 9.754807978258096812e-03 3.957531952445842924e-03 1.511953844253080721e-02 2.631243362168985550e-02 6.446482854575373914e-03 -2.074518725513165192e-03 -4.456524672786894674e-03 -3.130537334088755001e-03 -6.745265941149514513e-03 6.019105943728378719e-03 -4.828019628612094660e-01 -4.485116823661365604e-02 -1.415506113571321778e-01 2.474033920891421656e-01 2.854661198151024065e-02 -4.183561381529038448e-02 3.483778880298533595e-03 -5.398824281111955781e-01 2.824458985480689938e-02 -4.186450137275811723e-01 4.383888587188178865e-01 4.765350007930491127e-02 -2.493238963762494931e-01 2.799458993658135997e-01 6.020160512557936050e-01 2.587452045196599326e-01 0.000000000000000000e+00 0.000000000000000000e+00 0.000000000000000000e+00 -1.765284200877362663e-16 3.980787020611395096e-16 0.000000000000000000e+00 -2.113779223949180029e-15 3.466380542458663328e-15 0.000000000000000000e+00 -5.234176450684815707e-16 -6.508505636993920213e-16 5.821896399699500848e-16 0.000000000000000000e+00 0.000000000000000000e+00 0.000000000000000000e+00 0.000000000000000000e+00 -1.925749982992501825e-15 2.620350568454765815e-15 0.000000000000000000e+00 -6.634701925024173815e-15 3.461962709148563303e-17 -5.234176450684815707e-16 -6.508505636993920213e-16 5.821896399699500848e-16 0.000000000000000000e+00 -2.720599314405909047e-16 4.348998748598906606e-16 0.000000000000000000e+00 -1.166169990599484764e-15 -7.934216014609683410e-17 0.000000000000000000e+00 7.169717870691577657e-16 5.396890605261851836e-16 -5.234176450684815707e-16 -6.508505636993920213e-16 5.821896399699500848e-16 0.000000000000000000e+00 0.000000000000000000e+00 0.000000000000000000e+00 0.000000000000000000e+00 -1.813776698409735955e-15 1.100791420435423241e-15 0.000000000000000000e+00 -1.445114087964031632e-15 -6.259378779153961650e-16 -5.234176450684815707e-16 -6.508505636993920213e-16 5.821896399699500848e-16 0.000000000000000000e+00 0.000000000000000000e+00 0.000000000000000000e+00 0.000000000000000000e+00 -7.151999376395727429e-16 -1.154819140739731097e-15 0.000000000000000000e+00 1.353155317707865378e-15 -1.636909042882468100e-16 6.030266597151634489e-02 -6.987338900599364411e-02 -1.902077324643445047e-02 -2.161786458106400577e-01 1.213344337816075688e-02 1.531800490600574716e-01 2.639840292848559256e-01 8.250478879043379732e-02 1.374561237966092642e-01 -1.436901491529177580e-02 -2.845589995312532844e-02 3.270265698190311099e-02 0.000000000000000000e+00 0.000000000000000000e+00 0.000000000000000000e+00 1.710902602369828069e-15 -1.538340702023358790e-17 0.000000000000000000e+00 2.758992668062267122e-15 -5.325217380425160391e-15 0.000000000000000000e+00 -1.403180564110183192e-15 -2.430511005518501847e-16 -2.033643016765435106e-15 0.000000000000000000e+00 0.000000000000000000e+00 0.000000000000000000e+00 0.000000000000000000e+00 3.469786558034501633e-16 -2.329816665255128927e-15 0.000000000000000000e+00 -9.580397564031081670e-16 -2.231585415901792336e-15 -1.403180564110183192e-15 -2.430511005518501847e-16 -2.033643016765435106e-15 0.000000000000000000e+00 5.011506163291820670e-16 -3.131924651543402584e-15 0.000000000000000000e+00 7.234373709015454036e-16 -6.115308761738399557e-16 0.000000000000000000e+00 -5.897196099387369803e-16 1.430038798824896999e-16 -1.403180564110183192e-15 -2.430511005518501847e-16 -2.033643016765435106e-15 0.000000000000000000e+00 0.000000000000000000e+00 0.000000000000000000e+00 0.000000000000000000e+00 -7.529225631774791662e-17 9.334651920331312492e-16 0.000000000000000000e+00 5.546196709402509922e-16 -7.457476811121538167e-16 -1.403180564110183192e-15 -2.430511005518501847e-16 -2.033643016765435106e-15 0.000000000000000000e+00 0.000000000000000000e+00 0.000000000000000000e+00 0.000000000000000000e+00 -1.179990485701558243e-15 5.905029673789034306e-16 0.000000000000000000e+00 1.680401235803799392e-15 -1.166909953353778263e-16
4.500000000000000000e+02 0.000000000000000000e+00 0.000000000000000000e+00 0.000000000000000000e+00 0.000000000000000000e+00 0.000000000000000000e+00 2.186271751427984120e-02 1.940582139023515340e-02 1.451110287502606067e-01 -1.011006711950749870e-01 -7.559950119812657021e-02 -4.831824345676004051e-01 -7.295111891980167462e-02 4.160017386650802229e-02 3.906849820449891930e-01 -2.356245323236799416e-01 -3.390364813666699173e-02 -4.501178032420460884e-02 -1.090411818069264016e-01 9.166728647011063158e-02 -3.556097444840717881e-01 -7.793199905242398362e-02 2.563173841815343662e-02 -8.991460097719795874e-02 1.009155572424969005e-01 -1.460729803662476067e-01 3.000667752470071448e-01 4.774530912461236176e-02 1.414361324343363889e-02 3.396771682707195456e-02 1.070803356558810635e-02 1.120809266354456761e-02 8.139148819935800375e-03 2.054399872981490030e-02 4.429756415731084945e-02 8.573847967021600708e-03 -2.033662885736667487e-03 -4.560156008967558572e-03 -5.661881231435210091e-03 -1.393806656287341784e-03 1.298663790775326718e-02 -6.222318590825043350e-01 -5.153465308899479042e-02 -1.643699017938048679e-01 3.053796046046201029e-01 4.185502004021948025e-02 -5.773931415402165646e-02 -2.530705803010684703e-03 -8.524353322560248580e-01 -6.028634644183226976e-02 -6.732557274134631786e-01 3.901806058510500219e-01 -1.535426173510340275e-01 -1.624300516938723959e-01 3.025992172528526036e-01 2.394652218518811826e-01 9.839064961814911192e-02 0.000000000000000000e+00 0.000000000000000000e+00 0.000000000000000000e+00 -5.410721904723258663e-16 2.108348676891450585e-17 0.000000000000000000e+00 -3.172045997906772844e-15 1.893975403072966342e-15 0.000000000000000000e+00 1.928301142781783420e-16 -5.550920681754990646e-16 -5.161544738047588278e-17 0.000000000000000000e+00 0.000000000000000000e+00 0.000000000000000000e+00 0.000000000000000000e+00 -1.709894468878023691e-15 1.956145490314961461e-15 0.000000000000000000e+00 -6.078894733215225468e-15 -2.451737440150175766e-17 1.928301142781783420e-16 -5.550920681754990646e-16 -5.161544738047588278e-17 0.000000000000000000e+00 3.241534701747562262e-16 -9.780976486305040277e-16 0.000000000000000000e+00 -7.440765810641129916e-16 8.504686954592763780e-17 0.000000000000000000e+00 9.776776896634168800e-16 2.464594630249537643e-16 1.928301142781783420e-16 -5.550920681754990646e-16 -5.161544738047588278e-17 0.000000000000000000e+00 0.000000000000000000e+00 0.000000000000000000e+00 0.000000000000000000e+00 -9.453612950457695184e-16 1.255615873207493288e-15 0.000000000000000000e+00 -1.468225140936024962e-15 -2.684316393981075168e-16 1.928301142781783420e-16 -5.550920681754990646e-16 -5.161544738047588278e-17 0.000000000000000000e+00 0.000000000000000000e+00 0.000000000000000000e+00 0.000000000000000000e+00 -9.834662552430558035e-16 -8.352882077738585240e-16 0.000000000000000000e+00 7.262486516997174378e-16 -1.051310660808577939e-16 7.510844098004033909e-02 -7.112358411957273030e-02 -7.210437828884834477e-02 -3.200682745026665055e-01 4.150995218400852643e-02 3.334727912555798257e-01 2.435449201020191135e-01 1.148126789451436452e-01 -4.095875235787245494e-02 -9.954788828466201028e-03 -4.369817661015769350e-02 5.067675813265878904e-02 0.000000000000000000e+00 0.000000000000000000e+00 0.000000000000000000e+00 1.856815863612494268e-15 1.201786107600323248e-15 0.000000000000000000e+00 2.208429190481889511e-15 -4.594024440858229035e-15 0.000000000000000000e+00 -2.469699672554729530e-15 -2.869373038296558479e-16 -1.978889562268891933e-15 0.000000000000000000e+00 0.000000000000000000e+00 0.000000000000000000e+00 0.000000000000000000e+00 -9.783630155375205376e-17 -2.472142674442939842e-15 0.000000000000000000e+00 -1.621721536403095391e-15 -2.014572973297428500e-15 -2.469699672554729530e-15 -2.869373038296558479e-16 -1.978889562268891933e-15 0.000000000000000000e+00 5.543610345085357218e-16 -3.523973697304413844e-15 0.000000000000000000e+00 1.014385725586106773e-15 -7.343517962068568650e-16 0.000000000000000000e+00 -3.467971227009408785e-16 -1.464470195318861793e-16 -2.469699672554729530e-15 -2.869373038296558479e-16 -1.978889562268891933e-15 0.000000000000000000e+00 0.000000000000000000e+00 0.000000000000000000e+00 0.000000000000000000e+00 -6.460919861013847686e-16 9.675304198666470961e-16 0.000000000000000000e+00 3.618792954781011858e-16 -1.149985948679282876e-15 -2.469699672554729530e-15 -2.869373038296558479e-16 -1.978889562268891933e-15 0.000000000000000000e+00 0.000000000000000000e+00 0.000000000000000000e+00 0.000000000000000000e+00 -4.571971270918635216e-16 9.062397259042625387e-16 0.000000000000000000e+00 1.965561655480554768e-15 -3.892509623391757542e-16
